<?xml version="1.0" encoding="UTF-8"?>
<svg xmlns="http://www.w3.org/2000/svg" xmlns:xlink="http://www.w3.org/1999/xlink" width="300" height="250" viewBox="0 0 300 250">
<path fill-rule="nonzero" fill="rgb(53.72549%, 70.588235%, 98.039216%)" fill-opacity="1" stroke-width="1.497" stroke-linecap="butt" stroke-linejoin="miter" stroke="rgb(53.72549%, 70.588235%, 98.039216%)" stroke-opacity="1" stroke-miterlimit="4" d="M 94.016623 59.922941 C 87.639509 69.482719 78.094408 78.993023 71.907579 88.087294 C 69.523875 91.447046 66.664459 97.683053 72.825575 98.13282 C 75.322421 98.236266 78.091837 97.219794 80.748111 96.22806 C 84.360952 94.876513 88.043221 93.345059 90.81778 91.831596 C 111.787686 80.40304 127.450188 70.523928 146.424675 60.957403 C 147.0701 60.631322 147.43267 61.213769 146.967244 61.706263 C 121.983355 75.909877 95.9529 98.724262 71.563009 105.529223 C 63.799901 107.406997 62.424193 102.754166 65.34018 96.165093 C 72.033578 83.19159 81.738106 72.574861 90.542638 62.470866 C 91.537777 61.326211 94.767477 58.960441 94.016623 59.922941 Z M 94.016623 59.922941 " transform="matrix(1.519104, 0, 0, 1.737014, -6.961653, -102.395579)"/>
<path fill-rule="nonzero" fill="rgb(0%, 0%, 0%)" fill-opacity="1" stroke-width="0.264583" stroke-linecap="butt" stroke-linejoin="miter" stroke="rgb(90.980392%, 76.078431%, 61.176471%)" stroke-opacity="1" stroke-miterlimit="4" d="M 59.37192 105.26611 C 59.37192 105.277354 59.364206 105.286349 59.351349 105.286349 C 59.341063 105.286349 59.333349 105.277354 59.333349 105.26611 C 59.333349 105.254866 59.341063 105.248119 59.351349 105.248119 C 59.364206 105.248119 59.37192 105.254866 59.37192 105.26611 Z M 59.37192 105.26611 " transform="matrix(1.519104, 0, 0, 1.737014, -6.961653, -102.395579)"/>
<path fill-rule="nonzero" fill="rgb(90.196078%, 27.058824%, 32.54902%)" fill-opacity="1" stroke-width="1.497" stroke-linecap="butt" stroke-linejoin="miter" stroke="rgb(95.294118%, 54.509804%, 65.882353%)" stroke-opacity="1" stroke-miterlimit="4" d="M 58.186497 105.383049 C 40.51829 121.444196 10.75928 142.275113 5.395304 162.858659 C 5.073877 164.896099 5.889016 166.351093 7.295582 167.338329 C 8.478433 168.168148 10.018712 168.345805 11.263278 168.208627 C 13.155841 167.999485 14.96869 167.295601 16.758396 166.432051 C 23.757794 163.056556 30.515478 158.468942 36.455451 154.436789 C 37.556018 153.690177 38.736298 153.04926 39.770008 152.212695 C 44.41913 148.443655 51.1871 144.789306 53.72766 139.313404 C 54.324229 138.027073 52.907378 138.31942 52.13081 138.908614 C 50.317961 140.280401 48.512826 141.663431 46.658834 142.981246 C 38.718298 148.43466 30.037194 154.01176 21.844659 157.969701 C 19.412099 159.130098 16.930681 160.405185 14.258979 160.773993 C 5.781017 159.498906 17.601821 146.534398 19.862097 143.921257 C 31.271475 130.502486 45.023413 117.24563 55.730794 109.017159 C 56.715647 108.261552 58.950208 106.889765 59.837347 105.464007 C 60.354202 104.63194 58.839637 104.787109 58.186497 105.383049 Z M 58.186497 105.383049 " transform="matrix(1.519104, 0, 0, 1.737014, -6.961653, -102.395579)"/>
<path fill-rule="nonzero" fill="rgb(89.019608%, 76.470588%, 63.137255%)" fill-opacity="1" stroke-width="0.397" stroke-linecap="butt" stroke-linejoin="miter" stroke="rgb(90.980392%, 76.078431%, 61.176471%)" stroke-opacity="1" stroke-miterlimit="4" d="M 30.281479 177.804386 C 29.918909 178.362096 29.682339 178.404824 29.237484 178.404824 C 28.874914 178.407073 28.111203 177.993288 28.625486 177.235432 C 32.019757 172.198052 35.995168 167.648668 39.926864 163.121772 C 42.493139 160.16456 44.619701 157.614386 47.065118 154.828085 C 48.66454 153.006532 50.446532 151.292924 52.225952 150.121283 C 52.963949 149.635536 53.848517 149.273474 54.63537 149.307206 C 57.062788 149.484864 49.232823 157.317541 48.787968 157.668358 C 48.183685 158.147359 47.664258 158.765787 47.059975 159.285267 C 41.590571 164.835381 36.100596 169.391511 31.659758 175.688237 C 31.178903 176.376379 30.281479 177.804386 30.281479 177.804386 Z M 30.281479 177.804386 " transform="matrix(1.519104, 0, 0, 1.737014, -6.961653, -102.395579)"/>
<path fill-rule="nonzero" fill="rgb(89.019608%, 76.470588%, 63.137255%)" fill-opacity="1" stroke-width="0.397" stroke-linecap="butt" stroke-linejoin="miter" stroke="rgb(90.980392%, 76.078431%, 61.176471%)" stroke-opacity="1" stroke-miterlimit="4" d="M 131.461599 108.906966 C 138.954708 103.653698 144.146399 107.676856 142.873548 116.05375 C 141.919552 122.32124 136.65329 126.861629 133.050734 131.305318 C 131.991311 132.611889 133.66016 133.048162 134.547299 132.328536 C 143.714401 124.893902 151.500652 115.664702 150.410371 104.508254 C 150.217515 102.540527 150.253515 99.153789 145.702107 99.090821 C 140.232702 99.018859 133.637018 104.537489 129.707892 108.715816 C 128.946753 109.527644 130.48446 109.590611 131.461599 108.906966 Z M 131.461599 108.906966 " transform="matrix(1.519104, 0, 0, 1.737014, -6.961653, -102.395579)"/>
<path fill-rule="nonzero" fill="rgb(100%, 43.921569%, 54.117647%)" fill-opacity="1" stroke-width="0.813818" stroke-linecap="butt" stroke-linejoin="miter" stroke="rgb(95.294118%, 54.509804%, 65.882353%)" stroke-opacity="1" stroke-miterlimit="4" d="M 108.75439 671.863001 C 108.75439 669.925113 122.827113 650.333743 131.292129 640.499811 C 138.347928 632.297784 164.122005 602.320015 172.635614 592.409587 C 186.951305 575.742049 197.282317 566.783566 203.657805 565.508639 C 213.2016 563.59625 204.950397 573.940153 166.065751 612.62992 C 135.11159 643.432142 122.360614 657.66882 115.42144 669.194155 C 113.011194 673.197424 108.75439 674.897326 108.75439 671.863001 Z M 108.75439 671.863001 " transform="matrix(0.40193, 0, 0, 0.459585, -6.961653, -102.395579)"/>
<path fill-rule="nonzero" fill="rgb(100%, 43.921569%, 54.117647%)" fill-opacity="1" stroke-width="0.143622" stroke-linecap="butt" stroke-linejoin="miter" stroke="rgb(95.294118%, 54.509804%, 65.882353%)" stroke-opacity="1" stroke-miterlimit="4" d="M 109.075108 674.599843 C 106.956424 673.681896 106.353863 671.71001 107.578423 669.687126 C 109.454138 666.567806 117.608154 655.450448 123.031207 648.608343 C 129.21232 640.788794 134.489591 634.516156 147.425223 619.55702 C 152.109652 614.134333 159.33067 605.745317 163.461131 600.909096 C 178.097541 583.791084 181.965596 579.507331 186.737493 575.113085 C 195.124759 567.40403 200.63528 564.046724 205.484927 563.698244 C 207.234299 563.570751 208.099266 563.919231 208.633796 564.97317 C 209.129451 565.942114 208.925358 567.021552 207.817423 569.31642 C 205.92227 573.217694 201.198966 579.260846 193.579481 587.50537 C 190.838798 590.463199 186.737493 594.551463 179.652538 601.342571 C 172.800832 607.921191 156.910706 623.390299 150.933686 629.305957 C 134.65481 645.404028 125.169328 656.580883 116.820937 669.500137 C 114.381535 673.282419 113.769255 674.021876 112.641882 674.540346 C 111.699165 674.982321 110.008106 675.007819 109.075108 674.599843 Z M 111.475635 673.545904 C 112.991757 672.976436 114.857753 671.098045 116.41275 668.556692 C 121.32071 660.541654 129.989819 650.274247 144.888634 634.822139 C 147.551567 632.059798 158.854452 620.619458 170.011556 609.408606 C 181.158941 598.197753 191.830109 587.32688 193.715543 585.261499 C 206.641456 571.04182 209.693138 566.282095 206.699768 565.032667 C 205.863958 564.684187 204.260367 564.786181 202.569307 565.287652 C 196.514538 567.072549 187.087368 575.189581 174.861203 589.120277 C 167.008468 598.078759 129.387257 641.970226 126.753481 645.251037 C 121.019429 652.407624 113.419381 662.887519 110.095575 668.225211 C 108.589171 670.647571 108.297609 671.234037 108.297609 671.905498 C 108.297609 672.780948 108.696077 673.494907 109.337514 673.749892 C 109.969231 674.013377 110.319105 673.979379 111.475635 673.545904 Z M 111.475635 673.545904 " transform="matrix(0.40193, 0, 0, 0.459585, -6.961653, -102.395579)"/>
<path fill-rule="nonzero" fill="rgb(100%, 43.921569%, 54.117647%)" fill-opacity="1" stroke-width="0.039245" stroke-linecap="butt" stroke-linejoin="miter" stroke="rgb(95.294118%, 54.509804%, 65.882353%)" stroke-opacity="1" stroke-miterlimit="4" d="M 35.523746 632.569769 C 30.722692 631.617824 26.465888 628.541001 24.463829 624.58023 C 22.704739 621.086931 22.69502 617.848618 24.415235 612.221943 C 29.673069 595.078433 39.314051 577.399453 54.076805 557.842082 C 70.35568 536.287326 93.282169 512.497199 126.15092 483.0379 C 128.959633 480.522045 131.350441 478.465163 131.467066 478.465163 C 131.583691 478.465163 128.609759 481.567484 124.858328 485.366765 C 104.653085 505.799586 83.106657 529.487718 64.670222 551.526946 C 54.718241 563.42626 48.187253 572.843716 43.988761 581.343225 C 41.014829 587.360878 39.47927 592.588076 39.488988 596.616844 C 39.508426 601.249077 41.539641 605.209848 45.14529 607.60671 C 47.681879 609.281113 52.73562 610.853522 54.65021 610.54754 C 63.144381 609.179119 70.093275 606.510273 87.305149 597.993764 C 107.67561 587.913346 129.950944 574.815602 157.095361 556.949633 C 172.169114 547.030706 180.488349 541.208542 192.636764 532.06307 C 196.232694 529.351726 199.226064 527.175852 199.284376 527.235348 C 199.459313 527.405339 196.776943 531.71459 195.105321 533.932962 C 188.914489 542.202985 181.926721 548.322631 162.994632 562.074838 C 158.56289 565.296152 152.9649 569.460911 150.564374 571.322304 C 148.154128 573.192196 145.024697 575.470064 143.596043 576.388011 C 142.167389 577.314458 135.64612 581.640708 129.115133 586.017956 C 98.598315 606.425278 84.389529 615.077778 66.808343 623.959766 C 56.79805 629.008474 51.326404 631.141851 45.417415 632.280785 C 42.365733 632.867252 37.700742 633.011743 35.523746 632.569769 Z M 35.523746 632.569769 " transform="matrix(0.40193, 0, 0, 0.459585, -6.961653, -102.395579)"/>
<path fill-rule="nonzero" fill="rgb(100%, 43.921569%, 54.117647%)" fill-opacity="1" stroke-width="0.039245" stroke-linecap="butt" stroke-linejoin="miter" stroke="rgb(95.294118%, 54.509804%, 65.882353%)" stroke-opacity="1" stroke-miterlimit="4" d="M 34.930903 638.187944 C 28.127791 636.955516 22.46177 632.986245 19.585026 627.436065 C 18.000872 624.393241 17.534373 622.378857 17.534373 618.639073 C 17.534373 615.732241 17.621842 615.21377 18.681184 611.677975 C 28.351322 579.592327 51.880371 546.240252 93.282169 505.944077 C 113.80813 485.961731 127.385198 473.917926 170.915398 437.064053 C 195.921695 415.900275 205.727895 407.460262 215.456346 398.680269 C 219.402151 395.127474 221.32646 394.048036 224.057423 393.827049 C 225.486077 393.708056 226.020607 393.793051 227.060512 394.294522 C 229.431882 395.450455 229.820631 397.78782 228.07126 400.473665 C 226.040045 403.618484 223.075831 406.304329 215.72847 411.659019 C 210.305418 415.619791 202.821994 421.535449 194.833197 428.182066 C 159.923512 457.21639 119.270057 497.300076 85.604371 535.887849 C 65.99197 558.377551 61.404728 564.038224 54.864022 573.829659 C 46.126882 586.927403 43.182106 596.939825 46.700287 601.546559 C 47.506942 602.617498 49.994937 603.96892 52.191371 604.538387 C 53.72693 604.937864 53.999055 604.929364 56.5648 604.410894 C 62.143352 603.280459 67.585842 601.18958 78.879008 595.826389 C 102.340027 584.683533 128.133541 569.511908 161.080042 547.464181 C 174.851484 538.250713 176.921574 536.788797 188.107835 528.365783 C 192.685357 524.923482 197.10738 521.787163 197.943191 521.396186 C 199.964687 520.45274 203.414837 520.367745 204.590804 521.226195 C 205.620989 521.982652 206.165238 523.249079 206.165238 524.863985 C 206.165238 527.303345 202.598464 533.677977 198.059816 539.347149 C 191.907859 547.005207 184.647966 553.303344 167.815123 565.551137 C 162.683632 569.273922 156.473363 573.889156 154.014524 575.810045 C 151.545966 577.722434 147.580723 580.552771 145.199634 582.091182 C 142.808826 583.638093 137.142805 587.403376 132.594439 590.463199 C 108.997358 606.365781 94.205448 615.630246 79.520444 623.70478 C 73.971049 626.747605 63.124944 632.178791 59.577607 633.683204 C 49.926906 637.788467 41.364704 639.352377 34.930903 638.187944 Z M 47.13763 632.20429 C 52.793932 630.852868 56.953549 629.195463 65.99197 624.682224 C 82.873407 616.242211 96.936412 607.793699 122.380052 590.803179 C 129.717694 585.898962 138.270178 580.22129 141.370453 578.181408 C 144.470729 576.141526 148.824721 573.056204 151.05031 571.322304 C 153.266181 569.588404 159.243201 565.15166 164.316379 561.462873 C 178.214166 551.356956 183.608062 546.945711 189.565644 540.800566 C 193.181013 537.069281 196.679756 532.607038 198.497159 529.428222 C 199.925812 526.912367 200.110468 526.410896 199.537063 526.631883 C 199.294095 526.725378 195.610696 529.428222 191.353891 532.632537 C 179.506757 541.565521 173.092394 546.053262 157.348049 556.422664 C 127.628167 576.014033 103.399368 590.09772 81.269816 600.645611 C 70.618086 605.711319 65.418565 607.785199 59.70395 609.221616 C 54.533585 610.522041 53.134088 610.556039 49.732532 609.451103 C 44.280323 607.674706 40.869048 604.045415 40.0138 599.124199 C 38.274147 589.077779 47.487505 572.027763 66.973562 549.21508 C 90.609517 521.549177 109.473576 501.022861 130.67013 479.867583 C 134.645091 475.915311 137.842554 472.626 137.784241 472.566504 C 137.657898 472.439011 127.181105 481.660979 118.997933 489.08955 C 108.540578 498.592002 100.853061 505.90158 91.804921 514.945058 C 70.870773 535.87085 56.5648 552.759375 44.814853 570.412856 C 35.825026 583.927076 29.916038 595.392915 25.649514 607.640708 C 22.869957 615.621747 22.354864 618.664571 23.239269 622.047376 C 24.570735 627.155581 29.20657 631.405336 34.872591 632.705761 C 37.545242 633.317726 43.483387 633.079739 47.13763 632.20429 Z M 47.13763 632.20429 " transform="matrix(0.40193, 0, 0, 0.459585, -6.961653, -102.395579)"/>
<path fill-rule="nonzero" fill="rgb(100%, 43.921569%, 54.117647%)" fill-opacity="1" stroke-width="0.0034688" stroke-linecap="butt" stroke-linejoin="miter" stroke="rgb(95.294118%, 54.509804%, 65.882353%)" stroke-opacity="1" stroke-miterlimit="4" d="M 173.471425 605.923807 C 173.471425 605.830312 173.500581 605.804814 174.841766 604.444892 C 182.198846 597.050319 191.13036 587.930345 193.35595 585.558982 C 194.619385 584.20756 199.974406 578.181408 199.906375 578.181408 C 199.906375 578.181408 199.780031 578.3174 199.63425 578.478891 C 196.018882 582.618152 189.653113 589.383761 183.209594 595.945383 C 180.255099 598.945709 178.116978 601.121584 176.532825 602.719492 C 175.492921 603.764931 174.384985 604.878367 174.064267 605.209848 L 173.471425 605.796314 L 173.471425 604.665879 L 174.900078 603.229462 C 176.464794 601.657053 178.116978 599.991149 179.351257 598.733222 C 179.7886 598.291247 180.468911 597.602787 180.867379 597.20331 C 181.256129 596.803833 182.053065 595.98788 182.636189 595.392915 C 183.219312 594.789449 183.919061 594.08399 184.181467 593.812006 C 185.46434 592.503081 187.816273 590.063722 189.419863 588.389319 C 196.533975 580.926749 201.198966 575.665553 203.881336 572.08726 L 204.134023 571.747279 L 204.143742 572.486737 L 204.143742 573.226194 L 203.891055 573.557675 C 201.869559 576.158525 198.866471 579.651823 194.609666 584.360551 C 193.394825 585.711973 192.384077 586.774412 190.799923 588.397818 C 190.586111 588.618806 190.022425 589.205272 189.536488 589.698243 C 189.050552 590.199714 188.409115 590.854176 188.107835 591.160159 C 186.922149 592.375589 186.426494 592.87706 185.872526 593.446527 C 185.551808 593.769508 184.667404 594.678956 183.889905 595.460911 C 183.122125 596.242865 182.111377 597.271306 181.644878 597.747279 C 181.178379 598.214752 180.381443 599.022205 179.876069 599.540675 C 178.56404 600.866599 176.950731 602.498504 175.522077 603.943421 C 174.851484 604.614882 174.112861 605.362839 173.88933 605.592326 L 173.471425 606.017301 Z M 199.993844 578.096413 C 200.023 578.062415 200.042437 578.036916 200.032718 578.036916 C 200.032718 578.036916 200.003562 578.062415 199.964687 578.096413 C 199.935531 578.130411 199.916094 578.155909 199.925812 578.155909 C 199.935531 578.155909 199.964687 578.130411 199.993844 578.096413 Z M 200.149343 577.917923 C 200.178499 577.892425 200.188218 577.866926 200.178499 577.866926 C 200.178499 577.866926 200.149343 577.892425 200.129906 577.917923 C 200.10075 577.943422 200.091031 577.960421 200.091031 577.960421 C 200.10075 577.960421 200.129906 577.943422 200.149343 577.917923 Z M 200.149343 577.917923 " transform="matrix(0.40193, 0, 0, 0.459585, -6.961653, -102.395579)"/>
<path fill-rule="nonzero" fill="rgb(100%, 43.921569%, 54.117647%)" fill-opacity="1" stroke-width="0.00693761" stroke-linecap="butt" stroke-linejoin="miter" stroke="rgb(95.294118%, 54.509804%, 65.882353%)" stroke-opacity="1" stroke-miterlimit="4" d="M 154.694835 613.275882 L 154.694835 612.689416 L 163.402818 602.558001 C 168.184434 596.990822 172.450958 592.027109 172.878582 591.542637 C 173.296487 591.049665 173.617206 590.667187 173.588049 590.692686 C 173.471425 590.760682 161.429916 604.708377 156.055457 611.006513 C 154.636522 612.655418 154.694835 612.595922 154.694835 612.493927 C 154.694835 612.45143 155.316834 611.694974 156.084613 610.802525 C 174.948672 588.856792 177.329761 586.136949 181.751784 581.513216 C 185.84337 577.229463 189.7503 573.566174 193.015794 570.939826 C 197.476692 567.361532 200.897686 565.466142 203.920211 564.913674 C 204.600522 564.786181 205.912551 564.760683 206.330457 564.871176 C 207.885454 565.253654 208.196453 566.435086 207.273174 568.44097 C 206.826112 569.401415 205.873676 570.897328 204.765741 572.384743 L 204.163179 573.200695 L 204.163179 571.73028 L 204.483898 571.288306 C 205.805645 569.452412 206.651175 567.914001 206.845549 566.953556 C 206.962174 566.350091 206.855268 566.035609 206.447081 565.831621 C 206.223551 565.729627 206.165238 565.721127 205.368302 565.721127 C 204.610241 565.721127 204.445023 565.738126 203.793868 565.874118 C 202.958057 566.052608 202.258308 566.273595 201.441935 566.613576 C 195.88282 568.950941 188.010647 575.784546 177.737948 587.190888 C 175.80392 589.332764 174.559922 590.760682 170.176774 595.860388 C 169.350682 596.820832 168.155278 598.206252 167.523561 598.954209 C 166.882124 599.693666 165.618689 601.164081 164.714847 602.209521 C 163.820724 603.26346 162.751663 604.504389 162.353195 604.963362 C 161.954727 605.430835 160.691292 606.90125 159.544482 608.227174 C 155.80277 612.595922 155.073865 613.437373 154.879491 613.65836 L 154.694835 613.870848 Z M 173.801861 590.463199 L 173.947642 590.310208 L 173.792143 590.4462 C 173.636643 590.582192 173.607487 590.61619 173.646362 590.61619 C 173.65608 590.61619 173.724112 590.548194 173.801861 590.463199 Z M 174.112861 590.114719 C 174.200329 590.021225 174.268361 589.944729 174.248923 589.944729 C 174.239204 589.944729 174.151736 590.021225 174.064267 590.114719 C 173.976799 590.208214 173.908767 590.284709 173.928205 590.284709 C 173.937924 590.284709 174.025392 590.208214 174.112861 590.114719 Z M 174.453016 589.723742 C 174.540485 589.630247 174.608516 589.553752 174.589079 589.553752 C 174.57936 589.553752 174.491891 589.630247 174.404423 589.723742 C 174.316954 589.817236 174.248923 589.893732 174.268361 589.893732 C 174.278079 589.893732 174.365548 589.817236 174.453016 589.723742 Z M 175.34714 588.703801 C 176.299575 587.624363 177.64076 586.128449 178.243322 585.473987 C 179.17632 584.454046 180.566099 582.958132 180.925692 582.575654 C 182.111377 581.334726 182.500126 580.926749 183.462281 579.940806 C 184.298092 579.090855 184.356404 579.022859 183.734405 579.634824 C 182.004471 581.334726 178.350228 585.253 175.638702 588.321323 C 175.211078 588.805795 174.802891 589.264768 174.725141 589.349763 C 174.647391 589.434758 174.589079 589.511254 174.608516 589.511254 C 174.618235 589.511254 174.95839 589.145775 175.34714 588.703801 Z M 185.853089 577.543945 L 186.795806 576.5835 L 185.84337 577.526946 C 184.949247 578.402395 184.861778 578.49589 184.900653 578.49589 C 184.900653 578.49589 185.337996 578.062415 185.853089 577.543945 Z M 187.369211 576.082029 C 187.583023 575.869541 187.748242 575.691052 187.728804 575.691052 C 187.719085 575.691052 187.534429 575.869541 187.320617 576.082029 C 187.116524 576.294517 186.951305 576.464507 186.961024 576.464507 C 186.980462 576.464507 187.165118 576.294517 187.369211 576.082029 Z M 188.214741 575.283075 C 188.360522 575.138584 188.467428 575.01959 188.457709 575.01959 C 188.44799 575.01959 188.311928 575.138584 188.166147 575.283075 C 188.030085 575.427567 187.923179 575.54656 187.932897 575.54656 C 187.942616 575.54656 188.078678 575.427567 188.214741 575.283075 Z M 188.827021 574.730607 C 188.924208 574.620113 189.001958 574.535118 188.98252 574.535118 C 188.972802 574.535118 188.875614 574.620113 188.778427 574.730607 C 188.671521 574.832601 188.593771 574.917596 188.613209 574.917596 C 188.622927 574.917596 188.720115 574.832601 188.827021 574.730607 Z M 189.361551 574.229136 L 189.497613 574.076145 L 189.342114 574.220637 C 189.254645 574.297132 189.186614 574.365128 189.186614 574.373628 C 189.186614 574.407626 189.225489 574.382127 189.361551 574.229136 Z M 189.857206 573.787162 C 189.925237 573.719166 189.964112 573.668168 189.954394 573.668168 C 189.934956 573.668168 189.876644 573.719166 189.808613 573.787162 C 189.7503 573.855158 189.711425 573.906155 189.721144 573.906155 C 189.740582 573.906155 189.798894 573.855158 189.857206 573.787162 Z M 190.275112 573.413183 L 190.420893 573.251692 L 190.255674 573.396184 C 190.177924 573.47268 190.100175 573.549175 190.100175 573.549175 C 190.100175 573.591673 190.13905 573.557675 190.275112 573.413183 Z M 190.654142 573.081702 C 190.702736 573.030705 190.731892 572.988208 190.722173 572.988208 C 190.712455 572.988208 190.654142 573.030705 190.605549 573.081702 C 190.556955 573.141199 190.537518 573.183696 190.547236 573.183696 C 190.556955 573.183696 190.605549 573.141199 190.654142 573.081702 Z M 191.072048 572.724723 C 191.13036 572.656727 191.169235 572.60573 191.159516 572.60573 C 191.140079 572.60573 191.081767 572.656727 191.023454 572.724723 C 190.955423 572.792719 190.916548 572.843716 190.926267 572.843716 C 190.945704 572.843716 191.004017 572.792719 191.072048 572.724723 Z M 191.383047 572.461238 C 191.431641 572.401742 191.460797 572.359244 191.44136 572.359244 C 191.431641 572.359244 191.383047 572.401742 191.334454 572.461238 C 191.28586 572.512235 191.256704 572.554733 191.266422 572.554733 C 191.28586 572.554733 191.334454 572.512235 191.383047 572.461238 Z M 191.703765 572.180754 C 191.762078 572.104259 191.762078 572.104259 191.684328 572.163755 C 191.635734 572.197753 191.596859 572.240251 191.596859 572.24875 C 191.596859 572.282748 191.635734 572.25725 191.703765 572.180754 Z M 192.014765 571.925769 C 192.063358 571.874772 192.082796 571.832274 192.073077 571.832274 C 192.063358 571.832274 192.014765 571.874772 191.966171 571.925769 C 191.917577 571.976766 191.888421 572.019264 191.89814 572.019264 C 191.907859 572.019264 191.966171 571.976766 192.014765 571.925769 Z M 192.296608 571.687783 C 192.345202 571.628286 192.374358 571.585789 192.364639 571.585789 C 192.35492 571.585789 192.296608 571.628286 192.248014 571.687783 C 192.199421 571.73878 192.179983 571.781277 192.189702 571.781277 C 192.199421 571.781277 192.248014 571.73878 192.296608 571.687783 Z M 194.211198 570.149372 C 194.279229 570.072876 194.269511 570.072876 194.191761 570.132373 C 194.114011 570.191869 194.094573 570.234367 194.133448 570.234367 C 194.143167 570.234367 194.182042 570.200369 194.211198 570.149372 Z M 197.496129 567.837505 C 197.496129 567.829005 197.447536 567.837505 197.398942 567.871503 C 197.34063 567.897002 197.301755 567.931 197.301755 567.947999 C 197.301755 567.956498 197.34063 567.947999 197.398942 567.914001 C 197.447536 567.888502 197.496129 567.854504 197.496129 567.837505 Z M 198.263909 567.361532 C 198.263909 567.344533 198.225034 567.353033 198.166722 567.387031 C 198.118128 567.41253 198.069535 567.446528 198.069535 567.463527 C 198.069535 567.472026 198.118128 567.463527 198.166722 567.438028 C 198.225034 567.40403 198.263909 567.370032 198.263909 567.361532 Z M 198.604065 567.166044 C 198.604065 567.149045 198.56519 567.166044 198.506878 567.191542 C 198.458284 567.217041 198.40969 567.251039 198.40969 567.268038 C 198.40969 567.285037 198.458284 567.268038 198.506878 567.242539 C 198.56519 567.208541 198.604065 567.174543 198.604065 567.166044 Z M 207.623048 567.132046 C 207.603611 567.098048 207.593892 567.106547 207.593892 567.166044 C 207.593892 567.217041 207.603611 567.242539 207.613329 567.22554 C 207.632767 567.208541 207.632767 567.166044 207.623048 567.132046 Z M 198.847033 567.021552 C 198.847033 567.004553 198.79844 567.021552 198.749846 567.047051 C 198.691533 567.072549 198.652659 567.106547 198.652659 567.123546 C 198.652659 567.140545 198.691533 567.123546 198.749846 567.098048 C 198.79844 567.06405 198.847033 567.030052 198.847033 567.021552 Z M 207.671642 566.766567 C 207.661923 566.724069 207.652204 566.758067 207.652204 566.851562 C 207.652204 566.945056 207.661923 566.987554 207.671642 566.936557 C 207.68136 566.894059 207.68136 566.817564 207.671642 566.766567 Z M 199.381563 566.732569 C 199.381563 566.71557 199.294095 566.749568 199.187189 566.809064 C 199.080283 566.860061 198.992814 566.911058 198.992814 566.928057 C 198.992814 566.945056 199.080283 566.911058 199.187189 566.851562 C 199.294095 566.800565 199.381563 566.741068 199.381563 566.732569 Z M 200.421468 566.1886 C 200.40203 566.171601 199.430157 566.656073 199.430157 566.681572 C 199.430157 566.698571 199.653688 566.596577 199.925812 566.460584 C 200.207656 566.316093 200.431186 566.1971 200.421468 566.1886 Z M 207.671642 566.1886 C 207.661923 566.146103 207.652204 566.180101 207.652204 566.273595 C 207.652204 566.36709 207.661923 566.409587 207.671642 566.35859 C 207.68136 566.316093 207.68136 566.239597 207.671642 566.1886 Z M 201.179529 565.891117 C 201.461372 565.772124 201.684903 565.67013 201.675184 565.653131 C 201.655747 565.636132 200.586686 566.078107 200.586686 566.112105 C 200.586686 566.129104 200.606124 566.129104 200.625561 566.120604 C 200.644999 566.112105 200.897686 566.01011 201.179529 565.891117 Z M 207.584173 565.899617 C 207.584173 565.874118 207.555017 565.814622 207.516142 565.763625 C 207.448111 565.67863 207.448111 565.67863 207.496704 565.806122 C 207.555017 565.933615 207.584173 565.967613 207.584173 565.899617 Z M 202.345777 565.457642 C 202.666495 565.347149 202.899744 565.262154 202.870588 565.262154 C 202.78312 565.262154 201.743215 565.593634 201.743215 565.627633 C 201.743215 565.653131 201.70434 565.661631 202.345777 565.457642 Z M 203.0844 565.228156 C 203.064963 565.211157 203.026088 565.211157 202.987213 565.228156 C 202.948338 565.245155 202.967775 565.253654 203.016369 565.253654 C 203.074682 565.253654 203.103838 565.245155 203.0844 565.228156 Z M 203.278775 565.185658 C 203.259337 565.168659 203.220462 565.16016 203.181588 565.177159 C 203.142713 565.194158 203.152431 565.202657 203.210744 565.211157 C 203.259337 565.211157 203.288494 565.194158 203.278775 565.185658 Z M 203.745274 565.092163 C 203.910492 565.058165 203.988242 565.024167 203.920211 565.024167 C 203.784149 565.024167 203.269056 565.15166 203.385681 565.15166 C 203.424556 565.16016 203.589774 565.126161 203.745274 565.092163 Z M 204.289523 564.98167 C 204.240929 564.97317 204.172898 564.97317 204.124305 564.98167 C 204.075711 564.998669 204.114586 565.007168 204.211773 565.007168 C 204.299242 565.007168 204.338117 564.998669 204.289523 564.98167 Z M 204.678272 564.939172 C 204.629679 564.922173 204.54221 564.922173 204.483898 564.939172 C 204.425585 564.947672 204.46446 564.956171 204.571366 564.956171 C 204.678272 564.956171 204.726866 564.947672 204.678272 564.939172 Z M 205.543239 564.888175 C 205.426615 564.879676 205.212802 564.879676 205.086459 564.888175 C 204.960115 564.896675 205.067022 564.905174 205.319709 564.905174 C 205.572396 564.905174 205.669583 564.896675 205.543239 564.888175 Z M 205.543239 564.888175 " transform="matrix(0.40193, 0, 0, 0.459585, -6.961653, -102.395579)"/>
<path fill-rule="nonzero" fill="rgb(100%, 43.921569%, 54.117647%)" fill-opacity="1" stroke-width="0.00693761" stroke-linecap="butt" stroke-linejoin="miter" stroke="rgb(95.294118%, 54.509804%, 65.882353%)" stroke-opacity="1" stroke-miterlimit="4" d="M 137.745367 641.570749 L 137.745367 641.026781 L 138.357647 640.372318 C 145.199634 633.088239 151.390466 626.756104 164.99669 613.165389 L 173.442268 604.725376 L 173.442268 605.804814 L 163.859599 615.40076 C 154.947522 624.316745 152.119371 627.18108 147.901441 631.50733 C 144.77201 634.737144 141.924421 637.711972 139.222614 640.576307 C 138.425678 641.426258 137.774523 642.114718 137.755085 642.114718 C 137.745367 642.114718 137.745367 641.868232 137.745367 641.570749 Z M 137.745367 641.570749 " transform="matrix(0.40193, 0, 0, 0.459585, -6.961653, -102.395579)"/>
<path fill-rule="nonzero" fill="rgb(100%, 43.921569%, 54.117647%)" fill-opacity="1" stroke-width="0.00693761" stroke-linecap="butt" stroke-linejoin="miter" stroke="rgb(95.294118%, 54.509804%, 65.882353%)" stroke-opacity="1" stroke-miterlimit="4" d="M 137.735648 632.90125 L 137.735648 632.221289 L 138.454834 631.379837 C 151.750059 615.842734 154.665679 612.44293 154.685116 612.502427 C 154.694835 612.536425 154.675397 612.595922 154.636522 612.638419 C 154.597647 612.680917 151.371028 616.446199 147.473817 621.001936 C 143.576606 625.557673 140.330549 629.356954 140.262518 629.43345 L 140.136175 629.577941 L 140.262518 629.458948 C 140.330549 629.390952 141.078892 628.532502 141.924421 627.546559 C 146.628287 622.072875 154.354679 613.080394 154.510179 612.910403 L 154.694835 612.723414 L 154.694835 613.879347 L 153.110681 615.715242 C 152.245714 616.726683 151.021154 618.154601 150.389437 618.885559 C 147.580723 622.15787 147.036474 622.778334 145.491196 624.58023 C 144.597072 625.62567 143.459981 626.943093 142.983763 627.504061 C 141.963296 628.685493 139.737707 631.269344 138.668646 632.527271 C 138.250741 633.003244 137.881429 633.436719 137.832835 633.487716 C 137.745367 633.58121 137.735648 633.564211 137.735648 632.90125 Z M 138.620052 631.405336 C 138.678365 631.320341 138.678365 631.320341 138.600615 631.379837 C 138.552021 631.422335 138.513146 631.456333 138.513146 631.464832 C 138.513146 631.50733 138.552021 631.481832 138.620052 631.405336 Z M 138.853302 631.107853 C 138.921333 631.031358 138.911614 631.031358 138.843583 631.090854 C 138.79499 631.133352 138.756115 631.16735 138.756115 631.175849 C 138.756115 631.218347 138.79499 631.192848 138.853302 631.107853 Z M 139.164301 630.759373 C 139.212895 630.708376 139.242051 630.665879 139.232332 630.665879 C 139.212895 630.665879 139.164301 630.708376 139.115708 630.759373 C 139.067114 630.81037 139.037958 630.861367 139.057395 630.861367 C 139.067114 630.861367 139.115708 630.81037 139.164301 630.759373 Z M 139.426707 630.444891 C 139.494738 630.376895 139.533613 630.325898 139.523894 630.325898 C 139.504457 630.325898 139.446145 630.376895 139.378113 630.444891 C 139.319801 630.512887 139.280926 630.563884 139.290645 630.563884 C 139.310082 630.563884 139.368395 630.512887 139.426707 630.444891 Z M 139.747425 630.070913 L 139.893206 629.917922 L 139.737707 630.053914 C 139.582207 630.189906 139.553051 630.232404 139.591926 630.232404 C 139.601644 630.232404 139.669675 630.155908 139.747425 630.070913 Z M 140.038987 629.730933 L 140.175049 629.577941 L 140.01955 629.722433 C 139.873769 629.849926 139.844613 629.892423 139.883488 629.892423 C 139.893206 629.892423 139.961237 629.824427 140.038987 629.730933 Z M 140.038987 629.730933 " transform="matrix(0.40193, 0, 0, 0.459585, -6.961653, -102.395579)"/>
<path fill-rule="nonzero" fill="rgb(100%, 43.921569%, 54.117647%)" fill-opacity="1" d="M 107.0625 217.550781 C 107.007812 215.355469 122.753906 193.457031 130.652344 184.75 C 145.566406 168.308594 169.910156 151.160156 193.25 140.660156 C 204.550781 135.574219 221.871094 130.550781 243.726562 126.023438 C 254.148438 123.863281 265.574219 121.480469 269.117188 120.730469 C 282.898438 117.804688 289.324219 111.0625 288.246094 100.640625 C 288.058594 98.804688 287.4375 96.246094 286.863281 94.957031 C 283.523438 87.402344 278.285156 85.285156 266.371094 86.664062 C 262.535156 87.109375 258.671875 87.265625 257.789062 87.015625 C 255.46875 86.347656 254.71875 84.332031 255.523438 80.917969 C 257.144531 74.023438 268.363281 58.855469 275.972656 53.265625 C 281.453125 49.238281 282.679688 49.585938 277.832031 53.789062 C 272.433594 58.472656 268.773438 63.179688 266.910156 67.835938 C 264.226562 74.527344 266.085938 77.496094 271.890625 75.800781 C 275.789062 74.660156 287.171875 74.671875 290.738281 75.816406 C 292.554688 76.402344 294.175781 77.722656 296.136719 80.21875 C 300.714844 86.039062 301.207031 92.628906 297.703125 101.15625 C 294.9375 107.882812 283.097656 120.136719 274.652344 125.011719 C 267.425781 129.183594 254.195312 132.957031 231.300781 137.378906 C 203.125 142.820312 193.097656 146.316406 172.597656 157.84375 C 152.796875 168.984375 141.722656 176.917969 130.972656 187.667969 C 124.625 194.023438 116.402344 204.101562 112.113281 210.789062 C 107.910156 217.34375 107.085938 218.445312 107.0625 217.550781 Z M 107.0625 217.550781 "/>
<path fill-rule="nonzero" fill="rgb(100%, 43.921569%, 54.117647%)" fill-opacity="1" stroke-width="0.00693761" stroke-linecap="butt" stroke-linejoin="miter" stroke="rgb(95.294118%, 54.509804%, 65.882353%)" stroke-opacity="1" stroke-miterlimit="4" d="M 611.708478 508.825411 L 611.708478 499.382456 L 611.815384 499.356958 C 611.941727 499.32296 614.886503 498.770491 617.714654 498.243522 C 618.783714 498.048033 623.312643 497.215081 627.792979 496.399128 C 643.129137 493.619789 657.716954 490.959442 661.818259 490.211485 C 664.082723 489.803509 667.47456 489.183045 669.359994 488.843064 C 671.245428 488.494585 672.849019 488.205601 672.91705 488.188602 L 673.053113 488.154604 L 673.053113 504.813643 L 672.314489 505.017631 C 658.134859 508.986902 641.719921 512.667189 620.105462 516.729955 C 616.606718 517.392917 611.883415 518.259867 611.786227 518.259867 C 611.708478 518.259867 611.708478 517.579906 611.708478 508.825411 Z M 611.708478 508.825411 " transform="matrix(0.40193, 0, 0, 0.459585, -6.961653, -102.395579)"/>
<path fill-rule="nonzero" fill="rgb(100%, 43.921569%, 54.117647%)" fill-opacity="1" d="M 40.101562 248.1875 C 40.101562 247.972656 40.332031 247.285156 40.613281 246.660156 C 41.269531 245.203125 45.914062 237.15625 47.660156 234.453125 C 60.773438 214.15625 65.382812 206.824219 73.855469 192.777344 C 77.09375 187.402344 80.238281 182.210938 80.835938 181.234375 C 81.4375 180.253906 82.609375 178.335938 83.4375 176.96875 C 92.496094 162.042969 102.183594 147.457031 109.507812 137.71875 C 117.351562 127.296875 130.992188 112.855469 132.996094 112.855469 C 134.96875 112.855469 133.671875 121.203125 130.46875 129.132812 C 129.800781 130.785156 129.253906 132.261719 129.253906 132.417969 C 129.253906 132.792969 130.164062 133.8125 130.5 133.8125 C 130.988281 133.8125 135.460938 128.414062 141.820312 120.136719 C 151.511719 107.53125 158.371094 100.363281 163.796875 97.167969 C 166.976562 95.292969 172.859375 93.675781 176.492188 93.675781 C 183.953125 93.671875 188.953125 98.210938 188.953125 104.988281 C 188.953125 107.957031 188.53125 109.800781 187.121094 113.023438 C 183.9375 120.300781 178.78125 126.320312 168.574219 134.671875 C 164.902344 137.679688 160.320312 140.429688 160.320312 139.625 C 160.320312 139.324219 162.109375 137.707031 166.347656 134.191406 C 172.222656 129.316406 174.234375 127.425781 176.609375 124.546875 C 181.253906 118.917969 181.777344 113.890625 178.128906 109.980469 C 175.230469 106.875 173.40625 106.0625 169.402344 106.082031 C 164.644531 106.101562 160.984375 107.320312 156.402344 110.40625 C 149 115.394531 142.914062 121.945312 134.320312 134.167969 C 127.035156 144.535156 120.511719 151.859375 119.773438 150.496094 C 119.539062 150.0625 119.878906 148.140625 120.363281 147.167969 C 120.554688 146.78125 121.425781 145.304688 122.296875 143.886719 C 126.972656 136.289062 128.476562 128.460938 125.535156 127.066406 C 123.574219 126.140625 120.382812 128.738281 113.246094 137.066406 C 104.671875 147.074219 97.535156 157.886719 80.792969 186.21875 C 79.34375 188.675781 77.308594 192.078125 76.273438 193.773438 C 75.238281 195.472656 71.746094 201.257812 68.519531 206.628906 C 62.003906 217.460938 55.898438 227.242188 52.105469 232.914062 C 48.074219 238.945312 45.363281 242.921875 44.050781 244.738281 C 42.75 246.535156 40.101562 248.847656 40.101562 248.1875 Z M 40.101562 248.1875 "/>
<path fill-rule="nonzero" fill="rgb(100%, 80.392157%, 51.372549%)" fill-opacity="1" stroke-width="7.93701" stroke-linecap="butt" stroke-linejoin="miter" stroke="rgb(100%, 80.392157%, 51.372549%)" stroke-opacity="1" stroke-miterlimit="4" d="M 117.501248 762.365777 C 117.501248 760.283397 130.106443 741.210498 143.372512 723.200038 C 169.088277 688.309551 180.702161 672.066989 204.134023 638.238941 C 246.186976 577.518446 266.557437 550.022533 288.346834 524.575002 C 308.581234 500.937866 343.209075 468.571734 348.253097 468.571734 C 349.574844 468.571734 350.109374 470.084647 350.109374 473.747936 C 350.109374 480.811028 347.349255 490.636461 341.692953 503.691707 L 338.446896 511.171276 L 339.826956 512.607693 C 340.575299 513.398147 341.556891 514.04411 342.003952 514.04411 C 343.073013 514.04411 353.812211 502.943751 366.096688 489.140547 C 398.664158 452.53316 413.971161 438.823452 429.278164 432.559313 C 433.894561 430.663922 444.089511 428.10557 449.843 427.383112 C 467.414467 425.198738 481.613534 431.58187 485.841182 443.574677 C 487.24068 447.543948 487.435054 455.040516 486.249369 459.604752 C 484.762403 465.333421 480.000225 474.291904 474.606328 481.490989 C 464.664066 494.784222 438.34574 516.304979 421.989115 524.524005 C 417.256092 526.903868 415.642783 527.116355 418.072466 525.025476 C 418.995745 524.235022 424.166111 520.325247 429.560007 516.338977 C 447.802066 502.858755 452.622557 498.838488 458.006735 492.633846 C 464.158692 485.536755 466.520344 480.462548 466.500906 474.427896 C 466.481469 469.838161 465.023659 466.659345 461.058416 462.528583 C 457.180642 458.491316 453.244556 455.898966 449.007189 454.581542 C 446.159601 453.697593 444.497697 453.527603 438.899708 453.544602 C 427.907822 453.5786 421.065835 455.270002 410.861167 460.471702 C 391.666672 470.263137 375.514139 484.907792 351.557466 514.282096 C 335.822839 533.558984 322.605364 547.387685 317.658529 549.73355 C 315.326033 550.838486 314.927565 550.184024 315.831408 546.682226 C 316.385375 544.514851 317.794591 541.956499 321.448834 536.457316 C 329.583413 524.218023 333.364 514.962057 333.364 507.261501 C 333.364 503.088242 332.742001 501.345843 330.671911 499.722437 C 326.580325 496.501122 319.534244 500.674382 304.936709 514.970556 C 280.746786 538.667189 265.721627 558.04607 223.250769 620.347474 C 180.682724 682.79337 159.068264 713.468099 142.303452 735.252342 C 127.793385 754.104254 125.353984 757.011086 121.544241 760.045411 C 117.656748 763.130733 117.501248 763.215728 117.501248 762.365777 Z M 117.501248 762.365777 " transform="matrix(0.40193, 0, 0, 0.459585, -6.961653, -102.395579)"/>
<path fill-rule="nonzero" fill="rgb(79.215686%, 100%, 55.686275%)" fill-opacity="1" stroke-width="7.59766" stroke-linecap="butt" stroke-linejoin="miter" stroke="rgb(79.215686%, 100%, 55.686275%)" stroke-opacity="1" stroke-miterlimit="4" d="M 502.586557 499.739436 C 502.149214 499.025477 509.205014 489.242541 511.60554 487.236657 C 513.306318 485.80874 527.116636 468.852218 529.779569 464.908446 C 534.065529 458.567812 538.973489 447.577946 540.256362 441.483798 C 541.986296 433.264772 541.597547 422.946368 539.333082 416.903217 C 533.190844 400.482165 518.797402 397.481838 500.156874 408.743688 C 489.8453 414.973828 488.640177 413.401419 497.289848 405.003904 C 517.407623 385.48053 538.681927 374.108187 552.443651 375.527605 C 559.538325 376.258563 562.774663 378.272946 565.398721 383.593639 C 567.449373 387.766898 567.643748 389.364806 567.604873 402.046074 C 567.565998 418.909101 565.845782 426.082687 558.070797 441.764282 C 551.510653 455.023516 542.851263 466.591349 529.381101 480.122568 C 512.276133 497.291577 504.569179 502.935251 502.586557 499.739436 Z M 502.586557 499.739436 " transform="matrix(0.40193, 0, 0, 0.459585, -6.961653, -102.395579)"/>
<path fill-rule="nonzero" fill="rgb(100%, 80.392157%, 51.372549%)" fill-opacity="1" stroke-width="7.93701" stroke-linecap="butt" stroke-linejoin="miter" stroke="rgb(78.431373%, 66.27451%, 100%)" stroke-opacity="1" stroke-miterlimit="4" d="M 109.502732 672.143485 C 109.502732 671.166041 117.851123 659.003243 124.216892 650.707722 C 129.115133 644.316091 166.357313 600.679609 178.933352 586.578923 C 190.333424 573.795661 203.716118 563.885233 206.213832 566.375589 C 207.972922 568.143487 197.155974 580.127796 156.900987 621.001936 C 131.088035 647.197424 125.179046 653.733547 117.851123 664.145446 C 113.059788 670.970552 109.502732 674.378856 109.502732 672.143485 Z M 109.502732 672.143485 " transform="matrix(0.40193, 0, 0, 0.459585, -6.961653, -102.395579)"/>
<path fill-rule="nonzero" fill="rgb(100%, 80.392157%, 51.372549%)" fill-opacity="1" stroke-width="7.93701" stroke-linecap="butt" stroke-linejoin="miter" stroke="rgb(100%, 80.392157%, 51.372549%)" stroke-opacity="1" stroke-miterlimit="4" d="M 107.170236 675.330801 C 104.604491 672.772448 109.376388 664.136947 122.593864 647.426911 C 129.163726 639.114391 172.149677 588.907789 179.652538 580.782258 C 189.517051 570.089875 199.799469 563.001284 205.436333 563.001284 C 207.856298 563.001284 208.594921 563.519754 209.110014 565.576635 C 210.373449 570.625344 208.789296 572.486737 163.218163 619.497523 C 145.617539 637.652475 128.289041 656.325898 124.69311 661.000628 C 121.097179 665.675358 116.791781 670.962053 115.129878 672.74695 C 112.330883 675.755776 108.75439 676.920209 107.170236 675.330801 Z M 190.498643 580.57827 C 190.498643 579.294844 184.132873 585.456988 180.245381 590.497197 C 177.980916 593.438027 178.933352 592.775066 183.831593 588.032339 C 187.495554 584.471045 190.498643 581.122238 190.498643 580.57827 Z M 190.498643 580.57827 " transform="matrix(0.40193, 0, 0, 0.459585, -6.961653, -102.395579)"/>
<path fill-rule="nonzero" fill="rgb(100%, 80.392157%, 51.372549%)" fill-opacity="1" d="M 127.425781 126.335938 C 126.542969 125.132812 126.074219 124.890625 124.664062 124.890625 L 122.964844 124.890625 L 124.941406 122.8125 C 128.796875 118.757812 131.527344 116.238281 131.765625 116.515625 C 132.246094 117.0625 129.300781 127.925781 128.695312 127.820312 C 128.582031 127.800781 128.011719 127.132812 127.425781 126.335938 Z M 127.425781 126.335938 "/>
<path fill-rule="nonzero" fill="rgb(100%, 80.392157%, 51.372549%)" fill-opacity="1" d="M 182.15625 115.488281 C 182.148438 113.664062 181.875 112.46875 181.121094 111 C 179.777344 108.378906 176.585938 105.53125 174.007812 104.65625 C 169.488281 103.121094 163.164062 104.140625 157.675781 107.285156 C 153.171875 109.863281 153.1875 109.863281 154.816406 107.863281 C 157.023438 105.152344 161.933594 100.820312 164.433594 99.378906 C 171.265625 95.433594 179.1875 94.863281 183.515625 98.003906 C 188.027344 101.273438 188.140625 107.3125 183.835938 114.988281 L 182.164062 117.976562 Z M 182.15625 115.488281 "/>
<path fill-rule="nonzero" fill="rgb(79.215686%, 100%, 55.686275%)" fill-opacity="1" stroke-width="7.93701" stroke-linecap="butt" stroke-linejoin="miter" stroke="rgb(79.215686%, 100%, 55.686275%)" stroke-opacity="1" stroke-miterlimit="4" d="M 104.701679 677.795658 C 102.913432 676.010761 103.243869 670.409585 105.391708 666.210827 C 108.122672 660.864636 117.481811 648.047375 126.316138 637.56748 C 149.320376 610.258556 176.027451 579.685821 181.839253 573.999649 C 197.79741 558.386051 212.501851 555.139238 212.501851 567.22554 C 212.501851 572.444239 208.332515 577.475949 176.639731 610.496543 C 142.429795 646.151985 134.324373 654.89798 125.295671 665.887846 C 121.408178 670.622072 117.054187 675.50929 115.615814 676.741719 C 112.729351 679.215076 106.703737 679.801543 104.701679 677.795658 Z M 104.701679 677.795658 " transform="matrix(0.40193, 0, 0, 0.459585, -6.961653, -102.395579)"/>
<path fill-rule="nonzero" fill="rgb(53.72549%, 70.588235%, 98.039216%)" fill-opacity="1" stroke-width="11.2246" stroke-linecap="butt" stroke-linejoin="miter" stroke="rgb(53.72549%, 70.588235%, 98.039216%)" stroke-opacity="1" stroke-miterlimit="4" d="M 586.371744 456.952905 C 578.557884 449.660326 577.352761 441.220313 581.356878 421.730938 C 584.058686 408.607696 588.801427 399.34323 601.426059 382.505702 C 611.61129 368.906487 635.21809 344.130417 636.637025 345.541336 C 637.103524 346.008809 634.012967 350.709037 629.756162 355.987233 C 609.92995 380.576313 604.56521 391.396189 603.603055 408.70969 C 602.757526 424.153298 606.061894 431.709362 615.838939 436.639078 C 623.604205 440.557351 629.231351 440.650846 638.775146 437.021556 C 642.818138 435.491644 646.365475 434.463203 646.647318 434.752187 C 647.794129 435.89962 625.94642 451.734206 616.995468 456.238946 C 609.375982 460.072225 605.799489 461.03267 599.103282 461.03267 C 591.833671 461.03267 590.162049 460.497201 586.371744 456.952905 Z M 586.371744 456.952905 " transform="matrix(0.40193, 0, 0, 0.459585, -6.961653, -102.395579)"/>
<path fill-rule="nonzero" fill="rgb(78.431373%, 66.27451%, 100%)" fill-opacity="1" stroke-width="3.02362" stroke-linecap="butt" stroke-linejoin="miter" stroke="rgb(78.431373%, 66.27451%, 100%)" stroke-opacity="1" stroke-miterlimit="4" d="M 498.631033 504.924136 C 493.635605 500.997363 495.36554 497.104588 510.546199 478.082686 C 529.118695 454.819528 532.860407 447.535449 533.725374 433.001288 C 533.900311 421.322962 530.663973 408.148722 519.11812 409.21966 C 516.581531 409.466146 510.22548 411.599523 504.996803 413.970886 C 493.499543 419.181085 489.592613 419.580562 486.754743 415.840778 C 485.287215 413.89439 484.927622 412.406976 485.423277 410.333096 C 497.367598 390.69073 543.230294 358.358596 562.210977 370.385402 C 581.288847 382.471704 572.580863 419.844047 565.845782 436.324596 C 559.266201 452.405668 550.334686 467.730283 531.52894 486.539697 C 511.537509 506.539043 505.200896 510.091838 498.631033 504.924136 Z M 498.631033 504.924136 " transform="matrix(0.40193, 0, 0, 0.459585, -6.961653, -102.395579)"/>
</svg>
